<mxfile host="app.diagrams.net" agent="Mozilla/5.0 (Windows NT 10.0; Win64; x64) AppleWebKit/537.36 (KHTML, like Gecko) Chrome/131.0.0.0 Safari/537.36" version="26.0.2">
  <diagram id="WsneLTn48bzQhATTeUE6" name="Page-1">
    <mxGraphModel dx="2284" dy="-394" grid="1" gridSize="10" guides="1" tooltips="1" connect="1" arrows="1" fold="1" page="1" pageScale="1" pageWidth="850" pageHeight="1100" math="0" shadow="0">
      <root>
        <mxCell id="0" />
        <mxCell id="1" parent="0" />
        <mxCell id="QceZ4BOWjBwWvUnkvkng-1" value="1" style="rounded=0;whiteSpace=wrap;html=1;" vertex="1" parent="1">
          <mxGeometry x="-320" y="1400" width="40" height="40" as="geometry" />
        </mxCell>
        <mxCell id="QceZ4BOWjBwWvUnkvkng-2" value="2" style="rounded=0;whiteSpace=wrap;html=1;" vertex="1" parent="1">
          <mxGeometry x="-320" y="1440" width="40" height="40" as="geometry" />
        </mxCell>
        <mxCell id="QceZ4BOWjBwWvUnkvkng-3" value="3" style="rounded=0;whiteSpace=wrap;html=1;" vertex="1" parent="1">
          <mxGeometry x="-320" y="1480" width="40" height="40" as="geometry" />
        </mxCell>
        <mxCell id="QceZ4BOWjBwWvUnkvkng-4" value="4" style="rounded=0;whiteSpace=wrap;html=1;" vertex="1" parent="1">
          <mxGeometry x="-320" y="1520" width="40" height="40" as="geometry" />
        </mxCell>
        <mxCell id="QceZ4BOWjBwWvUnkvkng-5" value="5" style="rounded=0;whiteSpace=wrap;html=1;" vertex="1" parent="1">
          <mxGeometry x="-320" y="1560" width="40" height="40" as="geometry" />
        </mxCell>
        <mxCell id="QceZ4BOWjBwWvUnkvkng-6" value="6" style="rounded=0;whiteSpace=wrap;html=1;" vertex="1" parent="1">
          <mxGeometry x="-320" y="1600" width="40" height="40" as="geometry" />
        </mxCell>
        <mxCell id="QceZ4BOWjBwWvUnkvkng-7" value="7" style="rounded=0;whiteSpace=wrap;html=1;" vertex="1" parent="1">
          <mxGeometry x="-320" y="1640" width="40" height="40" as="geometry" />
        </mxCell>
        <mxCell id="QceZ4BOWjBwWvUnkvkng-8" value="8" style="rounded=0;whiteSpace=wrap;html=1;" vertex="1" parent="1">
          <mxGeometry x="-320" y="1680" width="40" height="40" as="geometry" />
        </mxCell>
        <mxCell id="QceZ4BOWjBwWvUnkvkng-9" value="9" style="rounded=0;whiteSpace=wrap;html=1;" vertex="1" parent="1">
          <mxGeometry x="-320" y="1720" width="40" height="40" as="geometry" />
        </mxCell>
        <mxCell id="QceZ4BOWjBwWvUnkvkng-10" value="" style="endArrow=classic;html=1;rounded=0;entryX=0;entryY=0.25;entryDx=0;entryDy=0;" edge="1" parent="1" target="QceZ4BOWjBwWvUnkvkng-12">
          <mxGeometry width="50" height="50" relative="1" as="geometry">
            <mxPoint x="-280" y="1410" as="sourcePoint" />
            <mxPoint x="-115" y="1455" as="targetPoint" />
            <Array as="points">
              <mxPoint x="-260" y="1410" />
              <mxPoint x="-260" y="1430" />
            </Array>
          </mxGeometry>
        </mxCell>
        <mxCell id="QceZ4BOWjBwWvUnkvkng-11" value="" style="endArrow=classic;html=1;rounded=0;exitX=1;exitY=0.5;exitDx=0;exitDy=0;entryX=0;entryY=0.75;entryDx=0;entryDy=0;" edge="1" parent="1" target="QceZ4BOWjBwWvUnkvkng-12">
          <mxGeometry width="50" height="50" relative="1" as="geometry">
            <mxPoint x="-280" y="1470" as="sourcePoint" />
            <mxPoint x="80" y="1530" as="targetPoint" />
            <Array as="points">
              <mxPoint x="-260" y="1470" />
              <mxPoint x="-260" y="1450" />
            </Array>
          </mxGeometry>
        </mxCell>
        <mxCell id="QceZ4BOWjBwWvUnkvkng-12" value="+" style="rounded=0;whiteSpace=wrap;html=1;" vertex="1" parent="1">
          <mxGeometry x="-240" y="1420" width="50" height="40" as="geometry" />
        </mxCell>
        <mxCell id="QceZ4BOWjBwWvUnkvkng-13" value="" style="triangle;whiteSpace=wrap;html=1;direction=north;" vertex="1" parent="1">
          <mxGeometry x="-220" y="1450" width="10" height="10" as="geometry" />
        </mxCell>
        <mxCell id="QceZ4BOWjBwWvUnkvkng-14" value="" style="endArrow=classic;html=1;rounded=0;entryX=0;entryY=0.25;entryDx=0;entryDy=0;" edge="1" parent="1" target="QceZ4BOWjBwWvUnkvkng-16">
          <mxGeometry width="50" height="50" relative="1" as="geometry">
            <mxPoint x="-280" y="1490" as="sourcePoint" />
            <mxPoint x="-115" y="1535" as="targetPoint" />
            <Array as="points">
              <mxPoint x="-260" y="1490" />
              <mxPoint x="-260" y="1510" />
            </Array>
          </mxGeometry>
        </mxCell>
        <mxCell id="QceZ4BOWjBwWvUnkvkng-15" value="" style="endArrow=classic;html=1;rounded=0;exitX=1;exitY=0.5;exitDx=0;exitDy=0;entryX=0;entryY=0.75;entryDx=0;entryDy=0;" edge="1" parent="1" target="QceZ4BOWjBwWvUnkvkng-16">
          <mxGeometry width="50" height="50" relative="1" as="geometry">
            <mxPoint x="-280" y="1550" as="sourcePoint" />
            <mxPoint x="80" y="1610" as="targetPoint" />
            <Array as="points">
              <mxPoint x="-260" y="1550" />
              <mxPoint x="-260" y="1530" />
            </Array>
          </mxGeometry>
        </mxCell>
        <mxCell id="QceZ4BOWjBwWvUnkvkng-16" value="+" style="rounded=0;whiteSpace=wrap;html=1;" vertex="1" parent="1">
          <mxGeometry x="-240" y="1500" width="50" height="40" as="geometry" />
        </mxCell>
        <mxCell id="QceZ4BOWjBwWvUnkvkng-17" value="" style="triangle;whiteSpace=wrap;html=1;direction=north;" vertex="1" parent="1">
          <mxGeometry x="-220" y="1530" width="10" height="10" as="geometry" />
        </mxCell>
        <mxCell id="QceZ4BOWjBwWvUnkvkng-18" value="" style="endArrow=classic;html=1;rounded=0;entryX=0;entryY=0.25;entryDx=0;entryDy=0;" edge="1" parent="1" target="QceZ4BOWjBwWvUnkvkng-20">
          <mxGeometry width="50" height="50" relative="1" as="geometry">
            <mxPoint x="-280" y="1570" as="sourcePoint" />
            <mxPoint x="-115" y="1615" as="targetPoint" />
            <Array as="points">
              <mxPoint x="-260" y="1570" />
              <mxPoint x="-260" y="1590" />
            </Array>
          </mxGeometry>
        </mxCell>
        <mxCell id="QceZ4BOWjBwWvUnkvkng-19" value="" style="endArrow=classic;html=1;rounded=0;exitX=1;exitY=0.5;exitDx=0;exitDy=0;entryX=0;entryY=0.75;entryDx=0;entryDy=0;" edge="1" parent="1" target="QceZ4BOWjBwWvUnkvkng-20">
          <mxGeometry width="50" height="50" relative="1" as="geometry">
            <mxPoint x="-280" y="1630" as="sourcePoint" />
            <mxPoint x="80" y="1690" as="targetPoint" />
            <Array as="points">
              <mxPoint x="-260" y="1630" />
              <mxPoint x="-260" y="1610" />
            </Array>
          </mxGeometry>
        </mxCell>
        <mxCell id="QceZ4BOWjBwWvUnkvkng-20" value="+" style="rounded=0;whiteSpace=wrap;html=1;" vertex="1" parent="1">
          <mxGeometry x="-240" y="1580" width="50" height="40" as="geometry" />
        </mxCell>
        <mxCell id="QceZ4BOWjBwWvUnkvkng-21" value="" style="triangle;whiteSpace=wrap;html=1;direction=north;" vertex="1" parent="1">
          <mxGeometry x="-220" y="1610" width="10" height="10" as="geometry" />
        </mxCell>
        <mxCell id="QceZ4BOWjBwWvUnkvkng-22" value="" style="endArrow=classic;html=1;rounded=0;entryX=0;entryY=0.25;entryDx=0;entryDy=0;" edge="1" parent="1" target="QceZ4BOWjBwWvUnkvkng-25">
          <mxGeometry width="50" height="50" relative="1" as="geometry">
            <mxPoint x="-280" y="1650" as="sourcePoint" />
            <mxPoint x="-115" y="1695" as="targetPoint" />
            <Array as="points">
              <mxPoint x="-260" y="1650" />
              <mxPoint x="-260" y="1670" />
            </Array>
          </mxGeometry>
        </mxCell>
        <mxCell id="QceZ4BOWjBwWvUnkvkng-23" value="" style="endArrow=classic;html=1;rounded=0;exitX=1;exitY=0.5;exitDx=0;exitDy=0;entryX=0;entryY=0.75;entryDx=0;entryDy=0;" edge="1" parent="1" target="QceZ4BOWjBwWvUnkvkng-25">
          <mxGeometry width="50" height="50" relative="1" as="geometry">
            <mxPoint x="-280" y="1710" as="sourcePoint" />
            <mxPoint x="80" y="1770" as="targetPoint" />
            <Array as="points">
              <mxPoint x="-260" y="1710" />
              <mxPoint x="-260" y="1690" />
            </Array>
          </mxGeometry>
        </mxCell>
        <mxCell id="QceZ4BOWjBwWvUnkvkng-24" value="" style="group" vertex="1" connectable="0" parent="1">
          <mxGeometry x="-240" y="1660" width="50" height="40" as="geometry" />
        </mxCell>
        <mxCell id="QceZ4BOWjBwWvUnkvkng-25" value="+" style="rounded=0;whiteSpace=wrap;html=1;" vertex="1" parent="QceZ4BOWjBwWvUnkvkng-24">
          <mxGeometry width="50" height="40" as="geometry" />
        </mxCell>
        <mxCell id="QceZ4BOWjBwWvUnkvkng-26" value="" style="triangle;whiteSpace=wrap;html=1;direction=north;" vertex="1" parent="QceZ4BOWjBwWvUnkvkng-24">
          <mxGeometry x="20" y="30" width="10" height="10" as="geometry" />
        </mxCell>
        <mxCell id="QceZ4BOWjBwWvUnkvkng-27" value="" style="endArrow=classic;html=1;rounded=0;entryX=0;entryY=0.25;entryDx=0;entryDy=0;" edge="1" parent="1" target="QceZ4BOWjBwWvUnkvkng-29">
          <mxGeometry width="50" height="50" relative="1" as="geometry">
            <mxPoint x="-190" y="1440" as="sourcePoint" />
            <mxPoint x="-25" y="1485" as="targetPoint" />
            <Array as="points">
              <mxPoint x="-170" y="1440" />
              <mxPoint x="-170" y="1470" />
            </Array>
          </mxGeometry>
        </mxCell>
        <mxCell id="QceZ4BOWjBwWvUnkvkng-28" value="" style="endArrow=classic;html=1;rounded=0;exitX=1;exitY=0.5;exitDx=0;exitDy=0;entryX=0;entryY=0.75;entryDx=0;entryDy=0;" edge="1" parent="1" target="QceZ4BOWjBwWvUnkvkng-29">
          <mxGeometry width="50" height="50" relative="1" as="geometry">
            <mxPoint x="-190" y="1520" as="sourcePoint" />
            <mxPoint x="170" y="1560" as="targetPoint" />
            <Array as="points">
              <mxPoint x="-170" y="1520" />
              <mxPoint x="-170" y="1490" />
            </Array>
          </mxGeometry>
        </mxCell>
        <mxCell id="QceZ4BOWjBwWvUnkvkng-29" value="+" style="rounded=0;whiteSpace=wrap;html=1;" vertex="1" parent="1">
          <mxGeometry x="-150" y="1460" width="50" height="40" as="geometry" />
        </mxCell>
        <mxCell id="QceZ4BOWjBwWvUnkvkng-30" value="" style="triangle;whiteSpace=wrap;html=1;direction=north;" vertex="1" parent="1">
          <mxGeometry x="-130" y="1490" width="10" height="10" as="geometry" />
        </mxCell>
        <mxCell id="QceZ4BOWjBwWvUnkvkng-31" value="" style="endArrow=classic;html=1;rounded=0;entryX=0;entryY=0.25;entryDx=0;entryDy=0;" edge="1" parent="1" target="QceZ4BOWjBwWvUnkvkng-33">
          <mxGeometry width="50" height="50" relative="1" as="geometry">
            <mxPoint x="-190" y="1600" as="sourcePoint" />
            <mxPoint x="-25" y="1645" as="targetPoint" />
            <Array as="points">
              <mxPoint x="-170" y="1600" />
              <mxPoint x="-170" y="1630" />
            </Array>
          </mxGeometry>
        </mxCell>
        <mxCell id="QceZ4BOWjBwWvUnkvkng-32" value="" style="endArrow=classic;html=1;rounded=0;exitX=1;exitY=0.5;exitDx=0;exitDy=0;entryX=0;entryY=0.75;entryDx=0;entryDy=0;" edge="1" parent="1" target="QceZ4BOWjBwWvUnkvkng-33">
          <mxGeometry width="50" height="50" relative="1" as="geometry">
            <mxPoint x="-190" y="1680" as="sourcePoint" />
            <mxPoint x="170" y="1720" as="targetPoint" />
            <Array as="points">
              <mxPoint x="-170" y="1680" />
              <mxPoint x="-170" y="1650" />
            </Array>
          </mxGeometry>
        </mxCell>
        <mxCell id="QceZ4BOWjBwWvUnkvkng-33" value="+" style="rounded=0;whiteSpace=wrap;html=1;" vertex="1" parent="1">
          <mxGeometry x="-150" y="1620" width="50" height="40" as="geometry" />
        </mxCell>
        <mxCell id="QceZ4BOWjBwWvUnkvkng-34" value="" style="triangle;whiteSpace=wrap;html=1;direction=north;" vertex="1" parent="1">
          <mxGeometry x="-130" y="1650" width="10" height="10" as="geometry" />
        </mxCell>
        <mxCell id="QceZ4BOWjBwWvUnkvkng-35" value="+" style="rounded=0;whiteSpace=wrap;html=1;" vertex="1" parent="1">
          <mxGeometry x="-60" y="1540" width="50" height="40" as="geometry" />
        </mxCell>
        <mxCell id="QceZ4BOWjBwWvUnkvkng-36" value="" style="triangle;whiteSpace=wrap;html=1;direction=north;" vertex="1" parent="1">
          <mxGeometry x="-40" y="1570" width="10" height="10" as="geometry" />
        </mxCell>
        <mxCell id="QceZ4BOWjBwWvUnkvkng-37" value="" style="endArrow=classic;html=1;rounded=0;exitX=1;exitY=0.5;exitDx=0;exitDy=0;entryX=0;entryY=0.25;entryDx=0;entryDy=0;" edge="1" parent="1" source="QceZ4BOWjBwWvUnkvkng-29" target="QceZ4BOWjBwWvUnkvkng-35">
          <mxGeometry width="50" height="50" relative="1" as="geometry">
            <mxPoint x="-170" y="1600" as="sourcePoint" />
            <mxPoint x="-120" y="1550" as="targetPoint" />
            <Array as="points">
              <mxPoint x="-80" y="1480" />
              <mxPoint x="-80" y="1550" />
            </Array>
          </mxGeometry>
        </mxCell>
        <mxCell id="QceZ4BOWjBwWvUnkvkng-38" value="" style="endArrow=classic;html=1;rounded=0;entryX=0;entryY=0.75;entryDx=0;entryDy=0;exitX=1;exitY=0.5;exitDx=0;exitDy=0;" edge="1" parent="1" source="QceZ4BOWjBwWvUnkvkng-33" target="QceZ4BOWjBwWvUnkvkng-35">
          <mxGeometry width="50" height="50" relative="1" as="geometry">
            <mxPoint x="-170" y="1600" as="sourcePoint" />
            <mxPoint x="-120" y="1550" as="targetPoint" />
            <Array as="points">
              <mxPoint x="-80" y="1640" />
              <mxPoint x="-80" y="1570" />
            </Array>
          </mxGeometry>
        </mxCell>
        <mxCell id="QceZ4BOWjBwWvUnkvkng-39" value="10" style="rounded=0;whiteSpace=wrap;html=1;" vertex="1" parent="1">
          <mxGeometry x="-320" y="1760" width="40" height="40" as="geometry" />
        </mxCell>
        <mxCell id="QceZ4BOWjBwWvUnkvkng-40" value="11" style="rounded=0;whiteSpace=wrap;html=1;" vertex="1" parent="1">
          <mxGeometry x="-320" y="1800" width="40" height="40" as="geometry" />
        </mxCell>
        <mxCell id="QceZ4BOWjBwWvUnkvkng-41" value="12" style="rounded=0;whiteSpace=wrap;html=1;" vertex="1" parent="1">
          <mxGeometry x="-320" y="1840" width="40" height="40" as="geometry" />
        </mxCell>
        <mxCell id="QceZ4BOWjBwWvUnkvkng-42" value="13" style="rounded=0;whiteSpace=wrap;html=1;" vertex="1" parent="1">
          <mxGeometry x="-320" y="1880" width="40" height="40" as="geometry" />
        </mxCell>
        <mxCell id="QceZ4BOWjBwWvUnkvkng-43" value="" style="endArrow=classic;html=1;rounded=0;entryX=0;entryY=0.25;entryDx=0;entryDy=0;" edge="1" parent="1" target="QceZ4BOWjBwWvUnkvkng-46">
          <mxGeometry width="50" height="50" relative="1" as="geometry">
            <mxPoint x="-280" y="1730" as="sourcePoint" />
            <mxPoint x="-115" y="1775" as="targetPoint" />
            <Array as="points">
              <mxPoint x="-260" y="1730" />
              <mxPoint x="-260" y="1750" />
            </Array>
          </mxGeometry>
        </mxCell>
        <mxCell id="QceZ4BOWjBwWvUnkvkng-44" value="" style="endArrow=classic;html=1;rounded=0;exitX=1;exitY=0.5;exitDx=0;exitDy=0;entryX=0;entryY=0.75;entryDx=0;entryDy=0;" edge="1" parent="1" target="QceZ4BOWjBwWvUnkvkng-46">
          <mxGeometry width="50" height="50" relative="1" as="geometry">
            <mxPoint x="-280" y="1790" as="sourcePoint" />
            <mxPoint x="80" y="1850" as="targetPoint" />
            <Array as="points">
              <mxPoint x="-260" y="1790" />
              <mxPoint x="-260" y="1770" />
            </Array>
          </mxGeometry>
        </mxCell>
        <mxCell id="QceZ4BOWjBwWvUnkvkng-45" value="" style="group" vertex="1" connectable="0" parent="1">
          <mxGeometry x="-240" y="1740" width="50" height="40" as="geometry" />
        </mxCell>
        <mxCell id="QceZ4BOWjBwWvUnkvkng-46" value="+" style="rounded=0;whiteSpace=wrap;html=1;" vertex="1" parent="QceZ4BOWjBwWvUnkvkng-45">
          <mxGeometry width="50" height="40" as="geometry" />
        </mxCell>
        <mxCell id="QceZ4BOWjBwWvUnkvkng-47" value="" style="triangle;whiteSpace=wrap;html=1;direction=north;" vertex="1" parent="QceZ4BOWjBwWvUnkvkng-45">
          <mxGeometry x="20" y="30" width="10" height="10" as="geometry" />
        </mxCell>
        <mxCell id="QceZ4BOWjBwWvUnkvkng-48" value="" style="endArrow=classic;html=1;rounded=0;entryX=0;entryY=0.25;entryDx=0;entryDy=0;" edge="1" parent="1" target="QceZ4BOWjBwWvUnkvkng-51">
          <mxGeometry width="50" height="50" relative="1" as="geometry">
            <mxPoint x="-280" y="1810" as="sourcePoint" />
            <mxPoint x="-115" y="1855" as="targetPoint" />
            <Array as="points">
              <mxPoint x="-260" y="1810" />
              <mxPoint x="-260" y="1830" />
            </Array>
          </mxGeometry>
        </mxCell>
        <mxCell id="QceZ4BOWjBwWvUnkvkng-49" value="" style="endArrow=classic;html=1;rounded=0;exitX=1;exitY=0.5;exitDx=0;exitDy=0;entryX=0;entryY=0.75;entryDx=0;entryDy=0;" edge="1" parent="1" target="QceZ4BOWjBwWvUnkvkng-51">
          <mxGeometry width="50" height="50" relative="1" as="geometry">
            <mxPoint x="-280" y="1870" as="sourcePoint" />
            <mxPoint x="80" y="1930" as="targetPoint" />
            <Array as="points">
              <mxPoint x="-260" y="1870" />
              <mxPoint x="-260" y="1850" />
            </Array>
          </mxGeometry>
        </mxCell>
        <mxCell id="QceZ4BOWjBwWvUnkvkng-50" value="" style="group" vertex="1" connectable="0" parent="1">
          <mxGeometry x="-240" y="1820" width="50" height="40" as="geometry" />
        </mxCell>
        <mxCell id="QceZ4BOWjBwWvUnkvkng-51" value="+" style="rounded=0;whiteSpace=wrap;html=1;" vertex="1" parent="QceZ4BOWjBwWvUnkvkng-50">
          <mxGeometry width="50" height="40" as="geometry" />
        </mxCell>
        <mxCell id="QceZ4BOWjBwWvUnkvkng-52" value="" style="triangle;whiteSpace=wrap;html=1;direction=north;" vertex="1" parent="QceZ4BOWjBwWvUnkvkng-50">
          <mxGeometry x="20" y="30" width="10" height="10" as="geometry" />
        </mxCell>
        <mxCell id="QceZ4BOWjBwWvUnkvkng-56" value="" style="endArrow=classic;html=1;rounded=0;entryX=0;entryY=0.25;entryDx=0;entryDy=0;" edge="1" parent="1" target="QceZ4BOWjBwWvUnkvkng-58">
          <mxGeometry width="50" height="50" relative="1" as="geometry">
            <mxPoint x="-190" y="1760" as="sourcePoint" />
            <mxPoint x="-25" y="1805" as="targetPoint" />
            <Array as="points">
              <mxPoint x="-170" y="1760" />
              <mxPoint x="-170" y="1790" />
            </Array>
          </mxGeometry>
        </mxCell>
        <mxCell id="QceZ4BOWjBwWvUnkvkng-57" value="" style="endArrow=classic;html=1;rounded=0;exitX=1;exitY=0.5;exitDx=0;exitDy=0;entryX=0;entryY=0.75;entryDx=0;entryDy=0;" edge="1" parent="1" target="QceZ4BOWjBwWvUnkvkng-58">
          <mxGeometry width="50" height="50" relative="1" as="geometry">
            <mxPoint x="-190" y="1840" as="sourcePoint" />
            <mxPoint x="170" y="1880" as="targetPoint" />
            <Array as="points">
              <mxPoint x="-170" y="1840" />
              <mxPoint x="-170" y="1810" />
            </Array>
          </mxGeometry>
        </mxCell>
        <mxCell id="QceZ4BOWjBwWvUnkvkng-58" value="+" style="rounded=0;whiteSpace=wrap;html=1;" vertex="1" parent="1">
          <mxGeometry x="-150" y="1780" width="50" height="40" as="geometry" />
        </mxCell>
        <mxCell id="QceZ4BOWjBwWvUnkvkng-59" value="" style="triangle;whiteSpace=wrap;html=1;direction=north;" vertex="1" parent="1">
          <mxGeometry x="-130" y="1810" width="10" height="10" as="geometry" />
        </mxCell>
        <mxCell id="QceZ4BOWjBwWvUnkvkng-60" value="+" style="rounded=0;whiteSpace=wrap;html=1;" vertex="1" parent="1">
          <mxGeometry x="-60" y="1830" width="50" height="40" as="geometry" />
        </mxCell>
        <mxCell id="QceZ4BOWjBwWvUnkvkng-61" value="" style="triangle;whiteSpace=wrap;html=1;direction=north;" vertex="1" parent="1">
          <mxGeometry x="-40" y="1860" width="10" height="10" as="geometry" />
        </mxCell>
        <mxCell id="QceZ4BOWjBwWvUnkvkng-62" value="" style="endArrow=classic;html=1;rounded=0;exitX=1;exitY=0.5;exitDx=0;exitDy=0;entryX=0;entryY=0.25;entryDx=0;entryDy=0;" edge="1" parent="1" target="QceZ4BOWjBwWvUnkvkng-60">
          <mxGeometry width="50" height="50" relative="1" as="geometry">
            <mxPoint x="-100" y="1800" as="sourcePoint" />
            <mxPoint x="-120" y="1870" as="targetPoint" />
            <Array as="points">
              <mxPoint x="-80" y="1800" />
              <mxPoint x="-80" y="1840" />
            </Array>
          </mxGeometry>
        </mxCell>
        <mxCell id="QceZ4BOWjBwWvUnkvkng-64" value="+" style="rounded=0;whiteSpace=wrap;html=1;" vertex="1" parent="1">
          <mxGeometry x="80" y="1680" width="50" height="40" as="geometry" />
        </mxCell>
        <mxCell id="QceZ4BOWjBwWvUnkvkng-65" value="" style="triangle;whiteSpace=wrap;html=1;direction=north;" vertex="1" parent="1">
          <mxGeometry x="100" y="1710" width="10" height="10" as="geometry" />
        </mxCell>
        <mxCell id="QceZ4BOWjBwWvUnkvkng-66" value="" style="endArrow=classic;html=1;rounded=0;exitX=1;exitY=0.5;exitDx=0;exitDy=0;entryX=0;entryY=0.25;entryDx=0;entryDy=0;" edge="1" parent="1" source="QceZ4BOWjBwWvUnkvkng-35" target="QceZ4BOWjBwWvUnkvkng-64">
          <mxGeometry width="50" height="50" relative="1" as="geometry">
            <mxPoint x="10" y="1580" as="sourcePoint" />
            <mxPoint x="50" y="1650" as="targetPoint" />
            <Array as="points">
              <mxPoint x="30" y="1560" />
              <mxPoint x="30" y="1690" />
            </Array>
          </mxGeometry>
        </mxCell>
        <mxCell id="QceZ4BOWjBwWvUnkvkng-67" value="" style="endArrow=classic;html=1;rounded=0;entryX=0;entryY=0.75;entryDx=0;entryDy=0;exitX=1;exitY=0.5;exitDx=0;exitDy=0;" edge="1" parent="1" source="QceZ4BOWjBwWvUnkvkng-60" target="QceZ4BOWjBwWvUnkvkng-64">
          <mxGeometry width="50" height="50" relative="1" as="geometry">
            <mxPoint x="-30" y="1820" as="sourcePoint" />
            <mxPoint x="100" y="1780" as="targetPoint" />
            <Array as="points">
              <mxPoint x="30" y="1850" />
              <mxPoint x="30" y="1710" />
            </Array>
          </mxGeometry>
        </mxCell>
        <mxCell id="QceZ4BOWjBwWvUnkvkng-70" value="14" style="rounded=0;whiteSpace=wrap;html=1;" vertex="1" parent="1">
          <mxGeometry x="-320" y="1920" width="40" height="40" as="geometry" />
        </mxCell>
        <mxCell id="QceZ4BOWjBwWvUnkvkng-71" value="15" style="rounded=0;whiteSpace=wrap;html=1;" vertex="1" parent="1">
          <mxGeometry x="-320" y="1960" width="40" height="40" as="geometry" />
        </mxCell>
        <mxCell id="QceZ4BOWjBwWvUnkvkng-72" value="16" style="rounded=0;whiteSpace=wrap;html=1;" vertex="1" parent="1">
          <mxGeometry x="-320" y="2000" width="40" height="40" as="geometry" />
        </mxCell>
        <mxCell id="QceZ4BOWjBwWvUnkvkng-73" value="17" style="rounded=0;whiteSpace=wrap;html=1;" vertex="1" parent="1">
          <mxGeometry x="-320" y="2040" width="40" height="40" as="geometry" />
        </mxCell>
        <mxCell id="QceZ4BOWjBwWvUnkvkng-74" value="" style="endArrow=classic;html=1;rounded=0;entryX=0;entryY=0.25;entryDx=0;entryDy=0;" edge="1" parent="1" target="QceZ4BOWjBwWvUnkvkng-77">
          <mxGeometry width="50" height="50" relative="1" as="geometry">
            <mxPoint x="-280" y="1890" as="sourcePoint" />
            <mxPoint x="-115" y="1935" as="targetPoint" />
            <Array as="points">
              <mxPoint x="-260" y="1890" />
              <mxPoint x="-260" y="1910" />
            </Array>
          </mxGeometry>
        </mxCell>
        <mxCell id="QceZ4BOWjBwWvUnkvkng-75" value="" style="endArrow=classic;html=1;rounded=0;exitX=1;exitY=0.5;exitDx=0;exitDy=0;entryX=0;entryY=0.75;entryDx=0;entryDy=0;" edge="1" parent="1" target="QceZ4BOWjBwWvUnkvkng-77">
          <mxGeometry width="50" height="50" relative="1" as="geometry">
            <mxPoint x="-280" y="1950" as="sourcePoint" />
            <mxPoint x="80" y="2010" as="targetPoint" />
            <Array as="points">
              <mxPoint x="-260" y="1950" />
              <mxPoint x="-260" y="1930" />
            </Array>
          </mxGeometry>
        </mxCell>
        <mxCell id="QceZ4BOWjBwWvUnkvkng-76" value="" style="group" vertex="1" connectable="0" parent="1">
          <mxGeometry x="-240" y="1900" width="50" height="40" as="geometry" />
        </mxCell>
        <mxCell id="QceZ4BOWjBwWvUnkvkng-77" value="+" style="rounded=0;whiteSpace=wrap;html=1;" vertex="1" parent="QceZ4BOWjBwWvUnkvkng-76">
          <mxGeometry width="50" height="40" as="geometry" />
        </mxCell>
        <mxCell id="QceZ4BOWjBwWvUnkvkng-78" value="" style="triangle;whiteSpace=wrap;html=1;direction=north;" vertex="1" parent="QceZ4BOWjBwWvUnkvkng-76">
          <mxGeometry x="20" y="30" width="10" height="10" as="geometry" />
        </mxCell>
        <mxCell id="QceZ4BOWjBwWvUnkvkng-79" value="" style="endArrow=classic;html=1;rounded=0;entryX=0;entryY=0.25;entryDx=0;entryDy=0;" edge="1" parent="1" target="QceZ4BOWjBwWvUnkvkng-82">
          <mxGeometry width="50" height="50" relative="1" as="geometry">
            <mxPoint x="-280" y="1970" as="sourcePoint" />
            <mxPoint x="-115" y="2015" as="targetPoint" />
            <Array as="points">
              <mxPoint x="-260" y="1970" />
              <mxPoint x="-260" y="1990" />
            </Array>
          </mxGeometry>
        </mxCell>
        <mxCell id="QceZ4BOWjBwWvUnkvkng-80" value="" style="endArrow=classic;html=1;rounded=0;exitX=1;exitY=0.5;exitDx=0;exitDy=0;entryX=0;entryY=0.75;entryDx=0;entryDy=0;" edge="1" parent="1" target="QceZ4BOWjBwWvUnkvkng-82">
          <mxGeometry width="50" height="50" relative="1" as="geometry">
            <mxPoint x="-280" y="2030" as="sourcePoint" />
            <mxPoint x="80" y="2090" as="targetPoint" />
            <Array as="points">
              <mxPoint x="-260" y="2030" />
              <mxPoint x="-260" y="2010" />
            </Array>
          </mxGeometry>
        </mxCell>
        <mxCell id="QceZ4BOWjBwWvUnkvkng-81" value="" style="group" vertex="1" connectable="0" parent="1">
          <mxGeometry x="-240" y="1980" width="50" height="40" as="geometry" />
        </mxCell>
        <mxCell id="QceZ4BOWjBwWvUnkvkng-82" value="+" style="rounded=0;whiteSpace=wrap;html=1;" vertex="1" parent="QceZ4BOWjBwWvUnkvkng-81">
          <mxGeometry width="50" height="40" as="geometry" />
        </mxCell>
        <mxCell id="QceZ4BOWjBwWvUnkvkng-83" value="" style="triangle;whiteSpace=wrap;html=1;direction=north;" vertex="1" parent="QceZ4BOWjBwWvUnkvkng-81">
          <mxGeometry x="20" y="30" width="10" height="10" as="geometry" />
        </mxCell>
        <mxCell id="QceZ4BOWjBwWvUnkvkng-84" value="" style="endArrow=classic;html=1;rounded=0;entryX=0;entryY=0.25;entryDx=0;entryDy=0;" edge="1" parent="1" target="QceZ4BOWjBwWvUnkvkng-86">
          <mxGeometry width="50" height="50" relative="1" as="geometry">
            <mxPoint x="-190" y="1920" as="sourcePoint" />
            <mxPoint x="-25" y="1965" as="targetPoint" />
            <Array as="points">
              <mxPoint x="-170" y="1920" />
              <mxPoint x="-170" y="1950" />
            </Array>
          </mxGeometry>
        </mxCell>
        <mxCell id="QceZ4BOWjBwWvUnkvkng-85" value="" style="endArrow=classic;html=1;rounded=0;exitX=1;exitY=0.5;exitDx=0;exitDy=0;entryX=0;entryY=0.75;entryDx=0;entryDy=0;" edge="1" parent="1" target="QceZ4BOWjBwWvUnkvkng-86">
          <mxGeometry width="50" height="50" relative="1" as="geometry">
            <mxPoint x="-190" y="2000" as="sourcePoint" />
            <mxPoint x="170" y="2040" as="targetPoint" />
            <Array as="points">
              <mxPoint x="-170" y="2000" />
              <mxPoint x="-170" y="1970" />
            </Array>
          </mxGeometry>
        </mxCell>
        <mxCell id="QceZ4BOWjBwWvUnkvkng-86" value="+" style="rounded=0;whiteSpace=wrap;html=1;" vertex="1" parent="1">
          <mxGeometry x="-150" y="1940" width="50" height="40" as="geometry" />
        </mxCell>
        <mxCell id="QceZ4BOWjBwWvUnkvkng-87" value="" style="triangle;whiteSpace=wrap;html=1;direction=north;" vertex="1" parent="1">
          <mxGeometry x="-130" y="1970" width="10" height="10" as="geometry" />
        </mxCell>
        <mxCell id="QceZ4BOWjBwWvUnkvkng-88" value="" style="rounded=0;whiteSpace=wrap;html=1;" vertex="1" parent="1">
          <mxGeometry x="-240" y="2040" width="50" height="40" as="geometry" />
        </mxCell>
        <mxCell id="QceZ4BOWjBwWvUnkvkng-89" value="" style="triangle;whiteSpace=wrap;html=1;direction=north;" vertex="1" parent="1">
          <mxGeometry x="-220" y="2070" width="10" height="10" as="geometry" />
        </mxCell>
        <mxCell id="QceZ4BOWjBwWvUnkvkng-90" value="" style="endArrow=classic;html=1;rounded=0;exitX=1;exitY=0.5;exitDx=0;exitDy=0;entryX=0;entryY=0.5;entryDx=0;entryDy=0;" edge="1" parent="1" target="QceZ4BOWjBwWvUnkvkng-88">
          <mxGeometry width="50" height="50" relative="1" as="geometry">
            <mxPoint x="-280" y="2060" as="sourcePoint" />
            <mxPoint x="-160" y="2000" as="targetPoint" />
          </mxGeometry>
        </mxCell>
        <mxCell id="QceZ4BOWjBwWvUnkvkng-91" value="" style="endArrow=classic;html=1;rounded=0;exitX=1;exitY=0.5;exitDx=0;exitDy=0;entryX=0;entryY=0.75;entryDx=0;entryDy=0;" edge="1" parent="1" source="QceZ4BOWjBwWvUnkvkng-86" target="QceZ4BOWjBwWvUnkvkng-60">
          <mxGeometry width="50" height="50" relative="1" as="geometry">
            <mxPoint x="-90" y="1810" as="sourcePoint" />
            <mxPoint x="-50" y="1850" as="targetPoint" />
            <Array as="points">
              <mxPoint x="-80" y="1960" />
              <mxPoint x="-80" y="1910" />
              <mxPoint x="-80" y="1870" />
              <mxPoint x="-80" y="1860" />
            </Array>
          </mxGeometry>
        </mxCell>
        <mxCell id="QceZ4BOWjBwWvUnkvkng-92" value="" style="rounded=0;whiteSpace=wrap;html=1;" vertex="1" parent="1">
          <mxGeometry x="-150" y="2040" width="50" height="40" as="geometry" />
        </mxCell>
        <mxCell id="QceZ4BOWjBwWvUnkvkng-93" value="" style="triangle;whiteSpace=wrap;html=1;direction=north;" vertex="1" parent="1">
          <mxGeometry x="-130" y="2070" width="10" height="10" as="geometry" />
        </mxCell>
        <mxCell id="QceZ4BOWjBwWvUnkvkng-94" value="" style="endArrow=classic;html=1;rounded=0;exitX=1;exitY=0.5;exitDx=0;exitDy=0;entryX=0;entryY=0.5;entryDx=0;entryDy=0;" edge="1" parent="1" target="QceZ4BOWjBwWvUnkvkng-92">
          <mxGeometry width="50" height="50" relative="1" as="geometry">
            <mxPoint x="-190" y="2060" as="sourcePoint" />
            <mxPoint x="-70" y="2000" as="targetPoint" />
          </mxGeometry>
        </mxCell>
        <mxCell id="QceZ4BOWjBwWvUnkvkng-99" value="" style="rounded=0;whiteSpace=wrap;html=1;" vertex="1" parent="1">
          <mxGeometry x="-60" y="2040" width="50" height="40" as="geometry" />
        </mxCell>
        <mxCell id="QceZ4BOWjBwWvUnkvkng-100" value="" style="triangle;whiteSpace=wrap;html=1;direction=north;" vertex="1" parent="1">
          <mxGeometry x="-40" y="2070" width="10" height="10" as="geometry" />
        </mxCell>
        <mxCell id="QceZ4BOWjBwWvUnkvkng-101" value="" style="endArrow=classic;html=1;rounded=0;exitX=1;exitY=0.5;exitDx=0;exitDy=0;entryX=0;entryY=0.5;entryDx=0;entryDy=0;" edge="1" parent="1" target="QceZ4BOWjBwWvUnkvkng-99">
          <mxGeometry width="50" height="50" relative="1" as="geometry">
            <mxPoint x="-100" y="2060" as="sourcePoint" />
            <mxPoint x="20" y="2000" as="targetPoint" />
          </mxGeometry>
        </mxCell>
        <mxCell id="QceZ4BOWjBwWvUnkvkng-102" value="" style="rounded=0;whiteSpace=wrap;html=1;" vertex="1" parent="1">
          <mxGeometry x="80" y="2040" width="50" height="40" as="geometry" />
        </mxCell>
        <mxCell id="QceZ4BOWjBwWvUnkvkng-103" value="" style="triangle;whiteSpace=wrap;html=1;direction=north;" vertex="1" parent="1">
          <mxGeometry x="100" y="2070" width="10" height="10" as="geometry" />
        </mxCell>
        <mxCell id="QceZ4BOWjBwWvUnkvkng-104" value="" style="endArrow=classic;html=1;rounded=0;exitX=1;exitY=0.5;exitDx=0;exitDy=0;entryX=0;entryY=0.5;entryDx=0;entryDy=0;" edge="1" parent="1" target="QceZ4BOWjBwWvUnkvkng-102">
          <mxGeometry width="50" height="50" relative="1" as="geometry">
            <mxPoint x="-10" y="2060" as="sourcePoint" />
            <mxPoint x="110" y="2000" as="targetPoint" />
          </mxGeometry>
        </mxCell>
        <mxCell id="QceZ4BOWjBwWvUnkvkng-107" value="+" style="rounded=0;whiteSpace=wrap;html=1;" vertex="1" parent="1">
          <mxGeometry x="240" y="1840" width="50" height="40" as="geometry" />
        </mxCell>
        <mxCell id="QceZ4BOWjBwWvUnkvkng-108" value="" style="triangle;whiteSpace=wrap;html=1;direction=north;" vertex="1" parent="1">
          <mxGeometry x="260" y="1870" width="10" height="10" as="geometry" />
        </mxCell>
        <mxCell id="QceZ4BOWjBwWvUnkvkng-109" value="" style="endArrow=classic;html=1;rounded=0;exitX=1;exitY=0.5;exitDx=0;exitDy=0;entryX=0;entryY=0.25;entryDx=0;entryDy=0;" edge="1" parent="1" source="QceZ4BOWjBwWvUnkvkng-64" target="QceZ4BOWjBwWvUnkvkng-107">
          <mxGeometry width="50" height="50" relative="1" as="geometry">
            <mxPoint x="200" y="1900" as="sourcePoint" />
            <mxPoint x="250" y="1850" as="targetPoint" />
            <Array as="points">
              <mxPoint x="200" y="1700" />
              <mxPoint x="200" y="1850" />
            </Array>
          </mxGeometry>
        </mxCell>
        <mxCell id="QceZ4BOWjBwWvUnkvkng-110" value="" style="endArrow=classic;html=1;rounded=0;entryX=0;entryY=0.75;entryDx=0;entryDy=0;exitX=1;exitY=0.5;exitDx=0;exitDy=0;" edge="1" parent="1" source="QceZ4BOWjBwWvUnkvkng-102" target="QceZ4BOWjBwWvUnkvkng-107">
          <mxGeometry width="50" height="50" relative="1" as="geometry">
            <mxPoint x="190" y="1965" as="sourcePoint" />
            <mxPoint x="240" y="1915" as="targetPoint" />
            <Array as="points">
              <mxPoint x="200" y="2060" />
              <mxPoint x="200" y="1870" />
            </Array>
          </mxGeometry>
        </mxCell>
      </root>
    </mxGraphModel>
  </diagram>
</mxfile>
